<svg width="1920" height="346" viewBox="0 0 1920 346" fill="none" xmlns="http://www.w3.org/2000/svg">
<mask id="mask0_302_13546" style="mask-type:alpha" maskUnits="userSpaceOnUse" x="-1" y="0" width="1921" height="346">
<rect x="-1" width="1921" height="346" fill="#F2F2F2"/>
</mask>
<g mask="url(#mask0_302_13546)">
<g filter="url(#filter0_f_302_13546)">
<circle cx="1667" cy="735" r="410" fill="#404453" fill-opacity="0.3"/>
</g>
<path opacity="0.36" d="M820 83.7958V82.7042H722.296V-15H721.204V82.7042H624.046V-15H622.954V82.7042H525.796V-15H524.704V82.7042H427.546V-15H426.454V82.7042H329.296V-15H328.204V82.7042H231.046V-15H229.954V82.7042H132.796V-15H131.704V82.7042H34.5458V-15H33.4542V82.7042H-63.7042V-15H-64.7958V82.7042H-161.954V-15H-163.046V82.7042H-260.204V-15H-261.296V82.7042H-359V83.7958H-261.296V180.954H-359V182.046H-261.296V279.204H-359V280.296H-261.296V377.454H-359V378.546H-261.296V475.704H-359V476.796H-261.296V573.954H-359V575.046H-261.296V672.204H-359V673.296H-261.296V770.454H-359V771.546H-261.296V868.704H-359V869.796H-261.296V966.954H-359V968.046H-261.296V1065.2H-359V1066.3H-261.296V1164H-260.204V1066.3H-163.046V1164H-161.954V1066.3H-64.7958V1164H-63.7042V1066.3H33.4542V1164H34.5458V1066.3H131.704V1164H132.796V1066.3H229.954V1164H231.046V1066.3H328.204V1164H329.296V1066.3H426.454V1164H427.546V1066.3H524.704V1164H525.796V1066.3H622.954V1164H624.046V1066.3H721.204V1164H722.296V1066.3H820V1065.2H722.296V968.046H820V966.954H722.296V869.796H820V868.704H722.296V771.546H820V770.454H722.296V673.296H820V672.204H722.296V575.046H820V573.954H722.296V476.796H820V475.704H722.296V378.546H820V377.454H722.296V280.296H820V279.204H722.296V182.046H820V180.954H722.296V83.7958H820ZM622.954 83.7958V180.954H525.796V83.7958H622.954ZM229.954 575.046V672.204H132.796V575.046H229.954ZM132.796 573.954V476.796H229.954V573.954H132.796ZM231.046 575.046H328.204V672.204H231.046V575.046ZM231.046 573.954V476.796H328.204V573.954H231.046ZM231.046 475.704V378.546H328.204V475.704H231.046ZM229.954 475.704H132.796V378.546H229.954V475.704ZM131.704 475.704H34.5458V378.546H131.704V475.704ZM131.704 476.796V573.954H34.5458V476.796H131.704ZM131.704 575.046V672.204H34.5458V575.046H131.704ZM131.704 673.296V770.454H34.5458V673.296H131.704ZM132.796 673.296H229.954V770.454H132.796V673.296ZM231.046 673.296H328.204V770.454H231.046V673.296ZM329.296 673.296H426.454V770.454H329.296V673.296ZM329.296 672.204V575.046H426.454V672.204H329.296ZM329.296 573.954V476.796H426.454V573.954H329.296ZM329.296 475.704V378.546H426.454V475.704H329.296ZM329.296 377.454V280.296H426.454V377.454H329.296ZM328.204 377.454H231.046V280.296H328.204V377.454ZM229.954 377.454H132.796V280.296H229.954V377.454ZM131.704 377.454H34.5458V280.296H131.704V377.454ZM33.4542 377.454H-63.7042V280.296H33.4542V377.454ZM33.4542 378.546V475.704H-63.7042V378.546H33.4542ZM33.4542 476.796V573.954H-63.7042V476.796H33.4542ZM33.4542 575.046V672.204H-63.7042V575.046H33.4542ZM33.4542 673.296V770.454H-63.7042V673.296H33.4542ZM33.4542 771.546V868.704H-63.7042V771.546H33.4542ZM34.5458 771.546H131.704V868.704H34.5458V771.546ZM132.796 771.546H229.954V868.704H132.796V771.546ZM231.046 771.546H328.204V868.704H231.046V771.546ZM329.296 771.546H426.454V868.704H329.296V771.546ZM427.546 771.546H524.704V868.704H427.546V771.546ZM427.546 770.454V673.296H524.704V770.454H427.546ZM427.546 672.204V575.046H524.704V672.204H427.546ZM427.546 573.954V476.796H524.704V573.954H427.546ZM427.546 475.704V378.546H524.704V475.704H427.546ZM427.546 377.454V280.296H524.704V377.454H427.546ZM427.546 279.204V182.046H524.704V279.204H427.546ZM426.454 279.204H329.296V182.046H426.454V279.204ZM328.204 279.204H231.046V182.046H328.204V279.204ZM229.954 279.204H132.796V182.046H229.954V279.204ZM131.704 279.204H34.5458V182.046H131.704V279.204ZM33.4542 279.204H-63.7042V182.046H33.4542V279.204ZM-64.7958 279.204H-161.954V182.046H-64.7958V279.204ZM-64.7958 280.296V377.454H-161.954V280.296H-64.7958ZM-64.7958 378.546V475.704H-161.954V378.546H-64.7958ZM-64.7958 476.796V573.954H-161.954V476.796H-64.7958ZM-64.7958 575.046V672.204H-161.954V575.046H-64.7958ZM-64.7958 673.296V770.454H-161.954V673.296H-64.7958ZM-64.7958 771.546V868.704H-161.954V771.546H-64.7958ZM-64.7958 869.796V966.954H-161.954V869.796H-64.7958ZM-63.7042 869.796H33.4542V966.954H-63.7042V869.796ZM34.5458 869.796H131.704V966.954H34.5458V869.796ZM132.796 869.796H229.954V966.954H132.796V869.796ZM231.046 869.796H328.204V966.954H231.046V869.796ZM329.296 869.796H426.454V966.954H329.296V869.796ZM427.546 869.796H524.704V966.954H427.546V869.796ZM525.796 869.796H622.954V966.954H525.796V869.796ZM525.796 868.704V771.546H622.954V868.704H525.796ZM525.796 770.454V673.296H622.954V770.454H525.796ZM525.796 672.204V575.046H622.954V672.204H525.796ZM525.796 573.954V476.796H622.954V573.954H525.796ZM525.796 475.704V378.546H622.954V475.704H525.796ZM525.796 377.454V280.296H622.954V377.454H525.796ZM525.796 279.204V182.046H622.954V279.204H525.796ZM524.704 83.7958V180.954H427.546V83.7958H524.704ZM426.454 83.7958V180.954H329.296V83.7958H426.454ZM328.204 83.7958V180.954H231.046V83.7958H328.204ZM229.954 83.7958V180.954H132.796V83.7958H229.954ZM131.704 83.7958V180.954H34.5458V83.7958H131.704ZM33.4542 83.7958V180.954H-63.7042V83.7958H33.4542ZM-64.7958 83.7958V180.954H-161.954V83.7958H-64.7958ZM-260.204 83.7958H-163.046V180.954H-260.204V83.7958ZM-260.204 182.046H-163.046V279.204H-260.204V182.046ZM-260.204 280.296H-163.046V377.454H-260.204V280.296ZM-260.204 378.546H-163.046V475.704H-260.204V378.546ZM-260.204 476.796H-163.046V573.954H-260.204V476.796ZM-260.204 575.046H-163.046V672.204H-260.204V575.046ZM-260.204 673.296H-163.046V770.454H-260.204V673.296ZM-260.204 771.546H-163.046V868.704H-260.204V771.546ZM-260.204 869.796H-163.046V966.954H-260.204V869.796ZM-260.204 1065.2V968.046H-163.046V1065.2H-260.204ZM-161.954 1065.2V968.046H-64.7958V1065.2H-161.954ZM-63.7042 1065.2V968.046H33.4542V1065.2H-63.7042ZM34.5458 1065.2V968.046H131.704V1065.2H34.5458ZM132.796 1065.2V968.046H229.954V1065.2H132.796ZM231.046 1065.2V968.046H328.204V1065.2H231.046ZM329.296 1065.2V968.046H426.454V1065.2H329.296ZM427.546 1065.2V968.046H524.704V1065.2H427.546ZM525.796 1065.2V968.046H622.954V1065.2H525.796ZM721.204 1065.2H624.046V968.046H721.204V1065.2ZM721.204 966.954H624.046V869.796H721.204V966.954ZM721.204 868.704H624.046V771.546H721.204V868.704ZM721.204 770.454H624.046V673.296H721.204V770.454ZM721.204 672.204H624.046V575.046H721.204V672.204ZM721.204 573.954H624.046V476.796H721.204V573.954ZM721.204 475.704H624.046V378.546H721.204V475.704ZM721.204 377.454H624.046V280.296H721.204V377.454ZM721.204 279.204H624.046V182.046H721.204V279.204ZM721.204 180.954H624.046V83.7958H721.204V180.954Z" fill="url(#paint0_radial_302_13546)"/>
<path opacity="0.36" d="M2150 -0.20417V-1.29584H2052.3V-99H2051.2V-1.29584H1954.05V-99H1952.95V-1.29584H1855.8V-99H1854.7V-1.29584H1757.55V-99H1756.45V-1.29584H1659.3V-99H1658.2V-1.29584H1561.05V-99H1559.95V-1.29584H1462.8V-99H1461.7V-1.29584H1364.55V-99H1363.45V-1.29584H1266.3V-99H1265.2V-1.29584H1168.05V-99H1166.95V-1.29584H1069.8V-99H1068.7V-1.29584H971V-0.20417H1068.7V96.9542H971V98.0458H1068.7V195.204H971V196.296H1068.7V293.454H971V294.546H1068.7V391.704H971V392.796H1068.7V489.954H971V491.046H1068.7V588.204H971V589.296H1068.7V686.454H971V687.546H1068.7V784.704H971V785.796H1068.7V882.954H971V884.046H1068.7V981.204H971V982.296H1068.7V1080H1069.8V982.296H1166.95V1080H1168.05V982.296H1265.2V1080H1266.3V982.296H1363.45V1080H1364.55V982.296H1461.7V1080H1462.8V982.296H1559.95V1080H1561.05V982.296H1658.2V1080H1659.3V982.296H1756.45V1080H1757.55V982.296H1854.7V1080H1855.8V982.296H1952.95V1080H1954.05V982.296H2051.2V1080H2052.3V982.296H2150V981.204H2052.3V884.046H2150V882.954H2052.3V785.796H2150V784.704H2052.3V687.546H2150V686.454H2052.3V589.296H2150V588.204H2052.3V491.046H2150V489.954H2052.3V392.796H2150V391.704H2052.3V294.546H2150V293.454H2052.3V196.296H2150V195.204H2052.3V98.0458H2150V96.9542H2052.3V-0.20417H2150ZM1952.95 -0.20417V96.9542H1855.8V-0.20417H1952.95ZM1559.95 491.046V588.204H1462.8V491.046H1559.95ZM1462.8 489.954V392.796H1559.95V489.954H1462.8ZM1561.05 491.046H1658.2V588.204H1561.05V491.046ZM1561.05 489.954V392.796H1658.2V489.954H1561.05ZM1561.05 391.704V294.546H1658.2V391.704H1561.05ZM1559.95 391.704H1462.8V294.546H1559.95V391.704ZM1461.7 391.704H1364.55V294.546H1461.7V391.704ZM1461.7 392.796V489.954H1364.55V392.796H1461.7ZM1461.7 491.046V588.204H1364.55V491.046H1461.7ZM1461.7 589.296V686.454H1364.55V589.296H1461.7ZM1462.8 589.296H1559.95V686.454H1462.8V589.296ZM1561.05 589.296H1658.2V686.454H1561.05V589.296ZM1659.3 589.296H1756.45V686.454H1659.3V589.296ZM1659.3 588.204V491.046H1756.45V588.204H1659.3ZM1659.3 489.954V392.796H1756.45V489.954H1659.3ZM1659.3 391.704V294.546H1756.45V391.704H1659.3ZM1659.3 293.454V196.296H1756.45V293.454H1659.3ZM1658.2 293.454H1561.05V196.296H1658.2V293.454ZM1559.95 293.454H1462.8V196.296H1559.95V293.454ZM1461.7 293.454H1364.55V196.296H1461.7V293.454ZM1363.45 293.454H1266.3V196.296H1363.45V293.454ZM1363.45 294.546V391.704H1266.3V294.546H1363.45ZM1363.45 392.796V489.954H1266.3V392.796H1363.45ZM1363.45 491.046V588.204H1266.3V491.046H1363.45ZM1363.45 589.296V686.454H1266.3V589.296H1363.45ZM1363.45 687.546V784.704H1266.3V687.546H1363.45ZM1364.55 687.546H1461.7V784.704H1364.55V687.546ZM1462.8 687.546H1559.95V784.704H1462.8V687.546ZM1561.05 687.546H1658.2V784.704H1561.05V687.546ZM1659.3 687.546H1756.45V784.704H1659.3V687.546ZM1757.55 687.546H1854.7V784.704H1757.55V687.546ZM1757.55 686.454V589.296H1854.7V686.454H1757.55ZM1757.55 588.204V491.046H1854.7V588.204H1757.55ZM1757.55 489.954V392.796H1854.7V489.954H1757.55ZM1757.55 391.704V294.546H1854.7V391.704H1757.55ZM1757.55 293.454V196.296H1854.7V293.454H1757.55ZM1757.55 195.204V98.0458H1854.7V195.204H1757.55ZM1756.45 195.204H1659.3V98.0458H1756.45V195.204ZM1658.2 195.204H1561.05V98.0458H1658.2V195.204ZM1559.95 195.204H1462.8V98.0458H1559.95V195.204ZM1461.7 195.204H1364.55V98.0458H1461.7V195.204ZM1363.45 195.204H1266.3V98.0458H1363.45V195.204ZM1265.2 195.204H1168.05V98.0458H1265.2V195.204ZM1265.2 196.296V293.454H1168.05V196.296H1265.2ZM1265.2 294.546V391.704H1168.05V294.546H1265.2ZM1265.2 392.796V489.954H1168.05V392.796H1265.2ZM1265.2 491.046V588.204H1168.05V491.046H1265.2ZM1265.2 589.296V686.454H1168.05V589.296H1265.2ZM1265.2 687.546V784.704H1168.05V687.546H1265.2ZM1265.2 785.796V882.954H1168.05V785.796H1265.2ZM1266.3 785.796H1363.45V882.954H1266.3V785.796ZM1364.55 785.796H1461.7V882.954H1364.55V785.796ZM1462.8 785.796H1559.95V882.954H1462.8V785.796ZM1561.05 785.796H1658.2V882.954H1561.05V785.796ZM1659.3 785.796H1756.45V882.954H1659.3V785.796ZM1757.55 785.796H1854.7V882.954H1757.55V785.796ZM1855.8 785.796H1952.95V882.954H1855.8V785.796ZM1855.8 784.704V687.546H1952.95V784.704H1855.8ZM1855.8 686.454V589.296H1952.95V686.454H1855.8ZM1855.8 588.204V491.046H1952.95V588.204H1855.8ZM1855.8 489.954V392.796H1952.95V489.954H1855.8ZM1855.8 391.704V294.546H1952.95V391.704H1855.8ZM1855.8 293.454V196.296H1952.95V293.454H1855.8ZM1855.8 195.204V98.0458H1952.95V195.204H1855.8ZM1854.7 -0.20417V96.9542H1757.55V-0.20417H1854.7ZM1756.45 -0.20417V96.9542H1659.3V-0.20417H1756.45ZM1658.2 -0.20417V96.9542H1561.05V-0.20417H1658.2ZM1559.95 -0.20417V96.9542H1462.8V-0.20417H1559.95ZM1461.7 -0.20417V96.9542H1364.55V-0.20417H1461.7ZM1363.45 -0.20417V96.9542H1266.3V-0.20417H1363.45ZM1265.2 -0.20417V96.9542H1168.05V-0.20417H1265.2ZM1069.8 -0.20417H1166.95V96.9542H1069.8V-0.20417ZM1069.8 98.0458H1166.95V195.204H1069.8V98.0458ZM1069.8 196.296H1166.95V293.454H1069.8V196.296ZM1069.8 294.546H1166.95V391.704H1069.8V294.546ZM1069.8 392.796H1166.95V489.954H1069.8V392.796ZM1069.8 491.046H1166.95V588.204H1069.8V491.046ZM1069.8 589.296H1166.95V686.454H1069.8V589.296ZM1069.8 687.546H1166.95V784.704H1069.8V687.546ZM1069.8 785.796H1166.95V882.954H1069.8V785.796ZM1069.8 981.204V884.046H1166.95V981.204H1069.8ZM1168.05 981.204V884.046H1265.2V981.204H1168.05ZM1266.3 981.204V884.046H1363.45V981.204H1266.3ZM1364.55 981.204V884.046H1461.7V981.204H1364.55ZM1462.8 981.204V884.046H1559.95V981.204H1462.8ZM1561.05 981.204V884.046H1658.2V981.204H1561.05ZM1659.3 981.204V884.046H1756.45V981.204H1659.3ZM1757.55 981.204V884.046H1854.7V981.204H1757.55ZM1855.8 981.204V884.046H1952.95V981.204H1855.8ZM2051.2 981.204H1954.05V884.046H2051.2V981.204ZM2051.2 882.954H1954.05V785.796H2051.2V882.954ZM2051.2 784.704H1954.05V687.546H2051.2V784.704ZM2051.2 686.454H1954.05V589.296H2051.2V686.454ZM2051.2 588.204H1954.05V491.046H2051.2V588.204ZM2051.2 489.954H1954.05V392.796H2051.2V489.954ZM2051.2 391.704H1954.05V294.546H2051.2V391.704ZM2051.2 293.454H1954.05V196.296H2051.2V293.454ZM2051.2 195.204H1954.05V98.0458H2051.2V195.204ZM2051.2 96.9542H1954.05V-0.20417H2051.2V96.9542Z" fill="url(#paint1_radial_302_13546)"/>
</g>
<defs>
<filter id="filter0_f_302_13546" x="1035" y="103" width="1264" height="1264" filterUnits="userSpaceOnUse" color-interpolation-filters="sRGB">
<feFlood flood-opacity="0" result="BackgroundImageFix"/>
<feBlend mode="normal" in="SourceGraphic" in2="BackgroundImageFix" result="shape"/>
<feGaussianBlur stdDeviation="111" result="effect1_foregroundBlur_302_13546"/>
</filter>
<radialGradient id="paint0_radial_302_13546" cx="0" cy="0" r="1" gradientUnits="userSpaceOnUse" gradientTransform="translate(340.5 434.5) rotate(134.015) scale(760.606)">
<stop stop-color="#84BCFF"/>
<stop offset="1" stop-color="#222222" stop-opacity="0"/>
</radialGradient>
<radialGradient id="paint1_radial_302_13546" cx="0" cy="0" r="1" gradientUnits="userSpaceOnUse" gradientTransform="translate(1670.5 350.5) rotate(134.015) scale(760.606)">
<stop stop-color="#84BCFF"/>
<stop offset="1" stop-color="#222222" stop-opacity="0"/>
</radialGradient>
</defs>
</svg>
