<svg width="42" height="42" viewBox="0 0 42 42" fill="none" xmlns="http://www.w3.org/2000/svg">
<circle cx="21" cy="21" r="21" fill="white"/>
<path d="M17.2472 33.6671C15.2812 32.7896 13.6572 31.4223 12.5898 29.5918" stroke="#FEDC18" stroke-width="1.75" stroke-linecap="round"/>
<path d="M24.2959 10.55C26.2523 9.9933 28.272 10.5232 29.6818 11.9631" stroke="#FEDC18" stroke-width="1.75" stroke-linecap="round"/>
<path d="M19.1528 19.1127C19.3963 19.5302 19.932 19.6712 20.3495 19.4278C20.7669 19.1844 20.9079 18.6486 20.6646 18.2312L19.1528 19.1127ZM15.7946 22.1548C16.0381 22.5723 16.5738 22.7133 16.9913 22.4698C17.4087 22.2265 17.5498 21.6907 17.3064 21.2732L15.7946 22.1548ZM25.7223 19.8406L26.1565 20.6004C26.3592 20.4845 26.5071 20.2926 26.5676 20.0672C26.628 19.8417 26.5958 19.6015 26.4782 19.3999L25.7223 19.8406ZM23.0816 25.85C23.325 26.2675 23.8608 26.4085 24.2782 26.1651C24.6958 25.9217 24.8368 25.3859 24.5933 24.9685L23.0816 25.85ZM12.1134 18.5207C12.8527 18.0982 13.5805 18.3579 13.8302 18.7861L15.342 17.9046C14.5068 16.4724 12.6317 16.2088 11.2451 17.0013L12.1134 18.5207ZM11.2451 17.0013C9.85578 17.7953 9.14144 19.5464 9.98096 20.9861L11.4927 20.1045C11.2473 19.6837 11.3769 18.9416 12.1134 18.5207L11.2451 17.0013ZM15.224 12.3754L16.2062 14.0598L17.718 13.1782L16.7358 11.4939L15.224 12.3754ZM16.2062 14.0598L19.1528 19.1127L20.6646 18.2312L17.718 13.1782L16.2062 14.0598ZM17.3064 21.2732L15.342 17.9046L13.8302 18.7861L15.7946 22.1548L17.3064 21.2732ZM15.342 17.9046L12.8865 13.6938L11.3747 14.5753L13.8302 18.7861L15.342 17.9046ZM13.5072 12.11C14.2465 11.6875 14.9743 11.9472 15.224 12.3754L16.7358 11.4939C15.9006 10.0617 14.0255 9.79813 12.6389 10.5906L13.5072 12.11ZM12.6389 10.5906C11.2496 11.3846 10.5352 13.1357 11.3747 14.5753L12.8865 13.6938C12.6411 13.273 12.7706 12.5309 13.5072 12.11L12.6389 10.5906ZM20.0555 11.8598L23.0021 16.9128L24.5139 16.0313L21.5672 10.9783L20.0555 11.8598ZM23.0021 16.9128L24.9665 20.2814L26.4782 19.3999L24.5139 16.0313L23.0021 16.9128ZM18.3387 11.5944C19.078 11.1719 19.8058 11.4316 20.0555 11.8598L21.5672 10.9783C20.732 9.54608 18.8569 9.28254 17.4704 10.075L18.3387 11.5944ZM17.4704 10.075C16.081 10.869 15.3667 12.6201 16.2062 14.0598L17.718 13.1782C17.4726 12.7574 17.6021 12.0153 18.3387 11.5944L17.4704 10.075ZM26.8514 14.7129L29.7979 19.7659L31.3097 18.8843L28.3631 13.8313L26.8514 14.7129ZM25.1345 14.4474C25.8739 14.0249 26.6016 14.2847 26.8514 14.7129L28.3631 13.8313C27.528 12.3992 25.6529 12.1356 24.2662 12.9281L25.1345 14.4474ZM24.2662 12.9281C22.8769 13.7221 22.1626 15.4732 23.0021 16.9128L24.5139 16.0313C24.2684 15.6105 24.398 14.8684 25.1345 14.4474L24.2662 12.9281ZM9.98096 20.9861L14.4009 28.5656L15.9126 27.6839L11.4927 20.1045L9.98096 20.9861ZM26.3499 29.7025C22.4218 31.9475 17.7897 30.9029 15.9126 27.6839L14.4009 28.5656C16.8634 32.7884 22.6428 33.8368 27.2182 31.2219L26.3499 29.7025ZM29.7979 19.7659C31.6707 22.9773 30.2753 27.4591 26.3499 29.7025L27.2182 31.2219C31.7964 28.6055 33.7766 23.1147 31.3097 18.8843L29.7979 19.7659ZM24.5933 24.9685C23.8055 23.6174 24.357 21.6288 26.1565 20.6004L25.2882 19.081C22.836 20.4825 21.6996 23.4802 23.0816 25.85L24.5933 24.9685Z" fill="#07348F"/>
</svg>
