<svg width="24" height="24" viewBox="0 0 24 24" fill="none" xmlns="http://www.w3.org/2000/svg">
<path d="M11.992 13C12.5439 13 12.9913 12.5523 12.9913 12C12.9913 11.4477 12.5439 11 11.992 11C11.4401 11 10.9927 11.4477 10.9927 12C10.9927 12.5523 11.4401 13 11.992 13Z" stroke="#342E59" stroke-width="2" stroke-linecap="round" stroke-linejoin="round"/>
<path d="M11.992 6C12.5439 6 12.9913 5.55228 12.9913 5C12.9913 4.44772 12.5439 4 11.992 4C11.4401 4 10.9927 4.44772 10.9927 5C10.9927 5.55228 11.4401 6 11.992 6Z" stroke="#342E59" stroke-width="2" stroke-linecap="round" stroke-linejoin="round"/>
<path d="M11.992 20C12.5439 20 12.9913 19.5523 12.9913 19C12.9913 18.4477 12.5439 18 11.992 18C11.4401 18 10.9927 18.4477 10.9927 19C10.9927 19.5523 11.4401 20 11.992 20Z" stroke="#342E59" stroke-width="2" stroke-linecap="round" stroke-linejoin="round"/>
</svg>
