<svg width="42" height="42" viewBox="0 0 42 42" fill="none" xmlns="http://www.w3.org/2000/svg">
<circle cx="21" cy="21" r="21" fill="white"/>
<path d="M21.1667 30.1673C26.2292 30.1673 30.3333 26.0632 30.3333 21.0007C30.3333 15.938 26.2292 11.834 21.1667 11.834C16.1041 11.834 12 15.938 12 21.0007C12 22.467 12.3443 23.853 12.9565 25.0821C13.1192 25.4087 13.1733 25.7821 13.079 26.1345L12.5331 28.1751C12.296 29.0609 13.1064 29.8712 13.9922 29.6343L16.0328 29.0883C16.3853 28.994 16.7586 29.0482 17.0852 29.2108C18.3143 29.823 19.7003 30.1673 21.1667 30.1673Z" stroke="#07348F" stroke-width="2.2"/>
<path d="M17 19.625H24.3333" stroke="#FEDC18" stroke-width="2.2" stroke-linecap="round"/>
<path d="M18 22.834H23.0417" stroke="#FEDC18" stroke-width="2.2" stroke-linecap="round"/>
</svg>
