<svg width="21" height="22" viewBox="0 0 21 22" fill="none" xmlns="http://www.w3.org/2000/svg">
<path fill-rule="evenodd" clip-rule="evenodd" d="M6.76291 2.68356C7.48769 1.54637 8.75963 0.791992 10.2082 0.791992C11.6567 0.791992 12.9286 1.54637 13.6534 2.68356C14.9693 2.39161 16.4025 2.75809 17.4264 3.78197C18.4502 4.80687 18.8167 6.23906 18.5248 7.55592C19.662 8.2807 20.4163 9.55264 20.4163 11.0002C20.4163 12.4487 19.662 13.7206 18.5248 14.4454C18.8167 15.7623 18.4502 17.1945 17.4264 18.2184C16.4025 19.2433 14.9693 19.6087 13.6534 19.3178C12.9286 20.455 11.6567 21.2083 10.2082 21.2083C8.75963 21.2083 7.48769 20.455 6.76291 19.3178C5.44606 19.6087 4.01385 19.2433 2.98997 18.2184C1.96609 17.1945 1.59963 15.7623 1.89056 14.4454C0.754389 13.7206 0 12.4487 0 11.0002C0 9.55264 0.754389 8.2807 1.89056 7.55592C1.59963 6.23906 1.96609 4.80687 2.98997 3.78197C4.01385 2.75809 5.44606 2.39161 6.76291 2.68356ZM6.81703 4.85688C7.08448 4.99571 7.39991 5.00898 7.67859 4.89362C7.95727 4.77827 8.17062 4.54553 8.26147 4.25868C8.5228 3.43284 9.29556 2.83363 10.2082 2.83363C11.1208 2.83363 11.8936 3.43284 12.1549 4.25868C12.2457 4.54553 12.4591 4.77827 12.7378 4.89362C13.0165 5.00898 13.3308 4.99571 13.5983 4.85688C14.368 4.45774 15.3378 4.58024 15.9829 5.22642C16.6281 5.87157 16.7516 6.84135 16.3525 7.61003C16.2136 7.87748 16.1994 8.19292 16.3147 8.47058C16.4301 8.74926 16.6628 8.96261 16.9496 9.05347C17.7765 9.3148 18.3747 10.0876 18.3747 11.0002C18.3747 11.9128 17.7765 12.6865 16.9496 12.9479C16.6628 13.0387 16.4301 13.2521 16.3147 13.5297C16.1994 13.8084 16.2136 14.1239 16.3525 14.3913C16.7516 15.16 16.6281 16.1298 15.9829 16.7749C15.3378 17.4201 14.368 17.5436 13.5983 17.1445C13.3308 17.0056 13.0165 16.9924 12.7378 17.1077C12.4591 17.2231 12.2457 17.4558 12.1549 17.7427C11.8936 18.5685 11.1208 19.1667 10.2082 19.1667C9.29556 19.1667 8.5228 18.5685 8.26147 17.7427C8.17062 17.4558 7.95727 17.2231 7.67859 17.1077C7.39991 16.9924 7.08448 17.0056 6.81703 17.1445C6.04835 17.5436 5.07857 17.4201 4.43341 16.7749C3.78825 16.1298 3.66474 15.16 4.06388 14.3913C4.20271 14.1239 4.21598 13.8084 4.10165 13.5297C3.9863 13.2521 3.75355 13.0387 3.46568 12.9479C2.63984 12.6865 2.04163 11.9128 2.04163 11.0002C2.04163 10.0876 2.63984 9.3148 3.46568 9.05347C3.75355 8.96261 3.9863 8.74926 4.10165 8.47058C4.21598 8.19292 4.20271 7.87748 4.06388 7.61003C3.66474 6.84135 3.78825 5.87157 4.43341 5.22642C5.07857 4.58024 6.04835 4.45774 6.81703 4.85688ZM10.2082 6.91689C7.95421 6.91689 6.1249 8.74722 6.1249 11.0002C6.1249 13.2541 7.95421 15.0834 10.2082 15.0834C12.4621 15.0834 14.2914 13.2541 14.2914 11.0002C14.2914 8.74722 12.4621 6.91689 10.2082 6.91689ZM10.2082 8.95853C11.3352 8.95853 12.2498 9.8742 12.2498 11.0002C12.2498 12.1271 11.3352 13.0418 10.2082 13.0418C9.08119 13.0418 8.16654 12.1271 8.16654 11.0002C8.16654 9.8742 9.08119 8.95853 10.2082 8.95853Z" fill="white"/>
</svg>
