<svg width="21" height="21" viewBox="0 0 21 21" fill="none" xmlns="http://www.w3.org/2000/svg">
<path fill-rule="evenodd" clip-rule="evenodd" d="M15.8217 13.3559L20.3546 17.8887C21.0354 18.5697 21.0354 19.6736 20.3546 20.3546C19.6736 21.0354 18.5696 21.0354 17.8886 20.3546L13.3557 15.8216C13.3421 15.808 13.3308 15.7931 13.3195 15.7781C13.3108 15.7666 13.3022 15.7551 13.2924 15.7442C11.9395 16.6361 10.32 17.1567 8.57826 17.1567C3.84059 17.1567 0 13.3159 0 8.57834C0 3.84067 3.84067 0 8.57834 0C13.316 0 17.1567 3.84067 17.1567 8.57843C17.1567 10.3201 16.6361 11.9396 15.7442 13.2926C15.7551 13.3023 15.7665 13.3109 15.778 13.3196C15.793 13.3309 15.808 13.3423 15.8217 13.3559ZM2.97376 8.57834C2.97376 11.6736 5.48297 14.1828 8.57834 14.1828C11.6736 14.1828 14.1828 11.6736 14.1828 8.57834C14.1828 5.48305 11.6736 2.97376 8.57834 2.97376C5.48305 2.97376 2.97376 5.48297 2.97376 8.57834Z" fill="#999999"/>
</svg>
