<svg width="87" height="86" viewBox="0 0 87 86" fill="none" xmlns="http://www.w3.org/2000/svg">
<g clip-path="url(#clip0_1651_373)">
<path d="M16.9019 0.898438C15.7001 11.239 0.902832 15.8037 0.902832 15.8037C5.12877 69.955 43.1687 85.1663 43.1687 85.1663C82.4104 68.7373 86.0354 17.3275 86.0354 17.3275C76.0715 15.1981 72.453 0.898438 72.453 0.898438H16.9019Z" fill="#FEBF10"/>
<mask id="mask0_1651_373" style="mask-type:luminance" maskUnits="userSpaceOnUse" x="0" y="0" width="87" height="86">
<path d="M16.9019 0.897461C15.7001 11.238 0.902832 15.8027 0.902832 15.8027C5.12877 69.954 43.1687 85.1653 43.1687 85.1653C82.4104 68.7363 86.0354 17.3265 86.0354 17.3265C76.0715 15.1972 72.453 0.897461 72.453 0.897461H16.9019Z" fill="white"/>
</mask>
<g mask="url(#mask0_1651_373)">
<path d="M86.0354 0.897461H0.902832V85.1653H86.0354V0.897461Z" fill="#FEBF10"/>
</g>
<path d="M86.035 17.3276L86.9203 17.3927C86.8815 17.4579 83.3728 69.2128 43.5043 86H42.8323C42.6966 85.974 4.26899 70.4956 0.0107422 15.882L0.637525 14.9509C0.682756 14.9378 15.0729 10.295 16.0163 0.794427L16.9016 0H72.4461L73.3055 0.677217C73.3055 0.722798 77.0145 14.6253 86.216 16.4485L86.9203 17.3927L86.035 17.3276L85.8476 18.2067C75.1213 15.7713 71.6578 1.16559 71.5867 1.12001L72.4461 0.898614V1.79072H16.9016V0.898614L17.7868 1.0028C16.3136 12.1899 1.19323 16.5788 1.16092 16.6634L0.902453 15.8039L1.7877 15.7323C5.98133 69.4212 43.4784 84.1963 43.4914 84.333L43.1618 85.1665L42.8193 84.3395C81.4472 68.2686 85.0593 17.3276 85.1433 17.2625L86.0286 17.3276H86.035Z" fill="#FEBF10"/>
<mask id="mask1_1651_373" style="mask-type:luminance" maskUnits="userSpaceOnUse" x="3" y="3" width="81" height="80">
<path d="M18.6007 3.58757C17.4699 13.2705 3.62256 17.5421 3.62256 17.5421C7.5771 68.2357 43.1874 82.4768 43.1874 82.4768C79.9285 67.0962 83.3209 18.9617 83.3209 18.9617C73.9967 16.9691 70.6043 3.58105 70.6043 3.58105H18.6007V3.58757Z" fill="white"/>
</mask>
<g mask="url(#mask1_1651_373)">
<path d="M83.3209 3.58789H3.62256V82.4836H83.3209V3.58789Z" fill="url(#paint0_linear_1651_373)"/>
</g>
<g clip-path="url(#clip1_1651_373)">
<path d="M58.0397 17.4576C57.9622 17.4251 57.8846 17.3795 57.8071 17.3665C55.5455 16.9497 53.3744 17.132 51.3907 18.4083C50.8543 18.7534 50.3374 19.1441 49.8786 19.5869C49.2777 20.1665 48.5734 20.4139 47.7721 20.427C46.5444 20.44 45.3167 20.453 44.0825 20.4465C41.304 20.4335 38.519 20.4009 35.7405 20.4009C34.2866 20.4009 33.1687 19.7367 32.2124 18.7209C31.4112 17.8744 30.5518 17.106 29.5373 16.5199C29.253 16.3571 28.9686 16.1748 28.6908 15.999C28.2256 15.7125 27.7151 15.6148 27.1788 15.6474C26.7846 15.6734 26.4357 15.8232 26.1643 16.1097C25.9058 16.3767 25.6409 16.6502 25.4406 16.9627C24.6135 18.239 24.1741 19.6521 23.9092 21.1498C23.6636 22.5368 23.5861 23.9303 23.5861 25.3303C23.5861 26.6 23.5731 27.8763 23.5925 29.1461C23.6054 30.0057 23.4827 30.8392 23.1725 31.6336C22.7073 32.8513 22.4617 34.1145 22.2033 35.3843C21.8543 37.1099 21.7962 38.842 21.8156 40.5872C21.8285 42.0002 21.822 43.4067 21.8285 44.8198C21.8285 45.8291 22.1257 46.7472 22.675 47.5807C23.2759 48.4924 23.8833 49.3975 24.5165 50.2766C25.9963 52.3213 27.5212 54.3399 28.988 56.3976C29.5567 57.205 30.261 57.8367 31.0299 58.4227C31.4176 58.7157 31.773 59.0478 32.1284 59.3799C32.878 60.0832 33.1106 61.0014 33.1817 61.9846C33.2269 62.7009 33.1946 63.4237 33.285 64.1335C33.4918 65.6442 34.1703 66.927 35.2559 67.9884C36.2897 68.9977 37.5239 69.6684 38.8873 70.0656C39.9083 70.3652 40.968 70.3391 42.0083 70.1112C42.2022 70.0656 42.396 69.994 42.5769 69.9028C43.3588 69.4861 44.1471 69.0628 44.9161 68.62C45.2715 68.4182 45.601 68.1642 45.9435 67.9298C46.021 67.8777 46.0921 67.8126 46.1696 67.754C46.1502 67.7279 46.1373 67.6954 46.1179 67.6693C46.0081 67.6954 45.9047 67.7214 45.7948 67.754C44.6899 68.1186 43.585 68.4898 42.48 68.8545C42.1246 68.9717 41.7692 68.9717 41.4009 68.9066C40.367 68.7047 39.4107 68.3465 38.6353 67.5977C38.0408 67.0182 37.7048 66.3149 37.6273 65.4879C37.5821 65.0256 37.7177 64.8042 38.1701 64.713C38.6741 64.6088 39.191 64.5242 39.7015 64.5046C40.8064 64.4591 41.9243 64.5307 43.0228 64.433C44.8385 64.2767 46.4669 63.606 47.7463 62.2516C48.5087 61.4376 49.0257 60.4674 49.3358 59.3734C49.6912 58.1167 49.73 56.8208 49.8592 55.5315C49.9432 54.7371 50.0402 53.9427 50.1694 53.1613C50.3309 52.1845 51.0676 51.338 52.1596 51.3054C53.607 51.2598 55.0092 50.9538 56.4308 50.7454C56.9283 50.6738 57.4452 50.6868 57.9493 50.7194C58.4597 50.7584 58.6019 50.9864 58.5825 51.5073C58.5631 51.9892 58.3887 52.3603 57.9945 52.6534C57.3354 53.1482 56.812 53.7734 56.2886 54.418C55.0738 55.9092 54.2596 57.6218 53.4325 59.3409C52.7218 60.8255 51.9464 62.2711 50.8931 63.5474C50.4214 64.1205 49.8916 64.6544 49.394 65.2144C49.31 65.3056 49.2454 65.4163 49.1678 65.514C49.1808 65.54 49.2002 65.5661 49.2131 65.5921C49.3488 65.5465 49.4845 65.5074 49.6137 65.4488C50.0725 65.2405 50.5183 65.0126 50.9836 64.8237C51.2679 64.7065 51.5716 64.6349 51.8688 64.5828C52.2113 64.5177 52.4051 64.6674 52.431 65.0191C52.5021 66.0284 52.431 66.9921 51.6556 67.7931C51.1451 68.327 50.6217 68.8349 50.0337 69.2973C49.3035 69.8703 48.5734 70.4303 47.7204 70.808C46.5573 71.3289 45.3684 71.7326 44.1213 72.0257C42.7966 72.3382 41.472 72.4294 40.128 72.3252C39.8566 72.3057 39.5852 72.2471 39.3202 72.1884C38.9778 72.1168 38.6482 72.0191 38.3058 71.9475C35.7792 71.3875 33.7503 70.0526 32.2706 67.9168C31.6115 66.9661 31.3013 65.8656 31.1656 64.713C31.1139 64.2507 31.0364 63.7949 30.9847 63.3325C30.8878 62.4795 30.5065 61.7502 29.9767 61.099C29.2917 60.259 28.6003 59.419 27.9348 58.5595C26.4033 56.5929 24.8849 54.6134 23.3599 52.6403C22.7525 51.8524 22.0999 51.084 21.5442 50.257C20.8205 49.1761 20.3488 47.9714 19.9934 46.7212C19.3601 44.4877 19.4764 42.2216 19.6315 39.949C19.6574 39.5193 19.6638 39.083 19.6703 38.6532C19.6832 36.9276 19.8448 35.215 20.1355 33.522C20.2842 32.6494 20.5362 31.7573 20.9303 30.9694C21.6863 29.4457 21.9383 27.8894 21.7574 26.2093C21.5248 24.0344 21.6152 21.866 22.1451 19.7302C22.255 19.2809 22.3002 18.8121 22.3842 18.3562C22.6427 16.9692 23.2048 15.7255 24.271 14.7748C24.8525 14.2604 25.4664 13.746 26.2547 13.5962C27.2434 13.4073 28.2062 13.4464 29.0914 14.0585C30.5001 15.0353 31.941 15.973 33.369 16.9237C34.2931 17.5423 35.2494 18.1088 36.3156 18.4539C37.2654 18.76 38.2282 18.9618 39.2298 18.8316C40.1538 18.7144 41.0714 18.8576 41.9889 18.8967C44.2376 18.9879 46.4022 18.5711 48.47 17.692C49.2454 17.3599 49.982 16.8976 50.654 16.3897C51.5457 15.7125 52.5408 15.3999 53.6199 15.2241C55.8298 14.8725 58.0397 14.8074 60.269 14.9116C61.0509 14.9506 61.71 15.2306 62.298 15.7255C62.5887 15.973 62.5952 16.1878 62.2915 16.4223C61.9555 16.6762 61.6001 16.9041 61.2576 17.1451C61.1801 17.1972 61.1026 17.2492 61.025 17.3665C61.1349 17.399 61.2447 17.4381 61.3546 17.4511C61.9426 17.5227 62.5241 17.5879 63.1121 17.6465C63.9522 17.7246 64.6888 18.0567 65.3414 18.5776C65.5159 18.7144 65.6386 18.8837 65.5805 19.1246C65.5223 19.359 65.335 19.4307 65.1282 19.4763C64.2235 19.6521 63.3189 19.8149 62.4143 20.0102C61.3416 20.2381 60.269 20.4921 59.2028 20.7395C59.1059 20.7591 59.0154 20.7981 58.925 20.8177C57.7877 21.0911 57.1157 21.8921 56.6246 22.8884C56.5665 23.0121 56.5665 23.2205 56.6246 23.3377C56.7151 23.52 56.9348 23.507 57.1028 23.4484C57.8653 23.2009 58.6213 22.947 59.2545 22.4195C59.8361 21.9377 60.4112 21.4493 61.025 21.013C61.3804 20.7656 61.8004 20.5702 62.214 20.44C62.7438 20.2772 62.9958 20.5442 62.8731 21.0912C62.718 21.7814 62.5306 22.4651 62.3626 23.1554C62.0977 24.2298 61.8456 25.3107 61.5743 26.3786C61.5032 26.6652 61.3933 26.9517 61.2576 27.2187C60.7665 28.2084 59.8361 28.508 58.8539 27.9936C58.3693 27.7396 57.8976 27.4531 57.4259 27.1601C55.4615 25.9554 53.3227 25.3954 51.0417 25.3172C49.4651 25.2652 47.882 25.2586 46.3247 25.5191C45.1228 25.721 44.0308 26.1638 43.1714 27.1014C42.732 27.5833 42.5317 28.1694 42.2668 28.7359C41.7498 29.8299 41.5948 31.028 41.3492 32.1936C41.2717 32.5583 41.1618 32.9164 41.052 33.2745C40.6901 34.4597 39.863 35.1825 38.7645 35.6383C38.0473 35.9378 37.2977 35.6774 36.9876 34.9676C36.8131 34.5704 36.7162 34.1145 36.6839 33.6718C36.5999 32.6299 36.574 31.588 36.8196 30.5592C37.1104 29.348 37.7177 28.2801 38.3768 27.2382C39.2362 25.8838 40.4381 24.9005 41.7434 24.0149C42.5317 23.4875 43.3329 23.0251 44.2634 22.7972C45.6979 22.4456 47.126 22.4195 48.5604 22.7907C49.0321 22.9079 49.5038 23.0056 49.982 23.0772C50.5054 23.1554 50.9706 22.9861 51.3002 22.5693C51.6427 22.1395 51.9722 21.6967 52.2824 21.2344C52.8704 20.3684 53.6199 19.6716 54.4664 19.0725C55.3 18.48 56.2111 18.0958 57.1932 17.8418C57.4711 17.7702 57.7425 17.6465 58.0139 17.5488C58.0139 17.5162 58.0074 17.4837 58.001 17.4576H58.0397Z" fill="white"/>
<path d="M46.1309 49.5471C46.0986 51.1946 45.3878 52.5034 44.1924 53.5974C43.6237 54.1118 43.1262 54.7044 42.5963 55.2644C42.3249 55.5444 42.0729 55.8439 41.7822 56.0979C41.1231 56.6839 40.3477 56.469 40.0569 55.629C40.0117 55.5053 39.9794 55.3816 39.9406 55.2579C39.7467 54.6392 39.3073 54.3332 38.6935 54.2616C38.4673 54.2355 38.2412 54.2485 38.015 54.2355C37.4593 54.2095 36.9036 54.1899 36.3479 54.1444C35.8568 54.1053 35.398 54.1899 34.9522 54.3723C34.3383 54.6197 34.0023 55.082 33.9635 55.7527C33.9377 56.1955 33.8472 56.6058 33.5435 56.9444C33.2398 57.2895 32.9943 57.296 32.7552 56.9118C32.0121 55.7072 31.3013 54.4895 30.5453 53.2913C29.8087 52.1322 29.0268 50.9992 28.2837 49.8466C27.9606 49.3452 27.5988 48.8438 27.3856 48.2838C27.0043 47.2875 26.9526 46.2652 27.6892 45.3731C28.0576 44.9303 28.4323 44.4875 28.8588 44.1033C29.5567 43.4717 30.4419 43.2438 31.3466 43.2242C31.7989 43.2112 32.2512 43.4261 32.7035 43.5563C33.3238 43.7387 33.9312 43.9796 34.558 44.1163C34.9328 44.1945 35.3528 44.188 35.7276 44.1098C36.6774 43.9145 37.595 43.628 38.4996 43.2438C39.6304 42.7619 40.8194 42.7945 42.0019 43.0745C42.4671 43.1852 42.8225 43.4912 43.165 43.8038C44.1278 44.6894 44.9484 45.6987 45.517 46.8838C45.9112 47.7173 46.1955 48.5964 46.1503 49.5471H46.1309ZM39.0941 52.9397C39.5464 52.8616 40.0375 52.7899 40.5286 52.6857C40.6385 52.6597 40.7935 52.536 40.8065 52.4383C40.8194 52.3406 40.7095 52.1778 40.6126 52.1127C40.4188 51.989 40.1926 51.9043 39.9794 51.8067C39.4495 51.5657 38.9003 51.3573 38.3963 51.0708C37.9439 50.8104 37.511 50.4978 37.1233 50.1527C36.5288 49.6187 36.3996 48.4987 37.4981 48.0234C37.8212 47.8801 38.1249 47.6848 38.4092 47.4699C38.8356 47.1508 38.855 46.9294 38.5836 46.4671C38.5449 46.4019 38.5061 46.3433 38.4609 46.2847C38.2799 46.0503 38.0473 45.9591 37.7565 46.0243C37.4076 46.1024 37.1168 46.2847 36.8778 46.5582C36.5482 46.9294 36.3479 47.3722 36.1799 47.8345C36.1024 48.0559 36.0184 48.2838 35.8827 48.4727C35.5725 48.922 35.0879 48.9024 34.7906 48.4531C34.6485 48.2382 34.5386 47.9973 34.3965 47.7824C34.0928 47.3136 33.8085 46.8252 33.466 46.3824C32.9491 45.7247 32.4063 45.5424 31.7472 46.5452C31.7343 46.5647 31.7213 46.5908 31.7084 46.6103C31.534 46.9033 31.5404 47.1964 31.773 47.4438C32.0186 47.7108 32.277 47.9778 32.5549 48.2057C33.0848 48.6289 33.5823 49.0717 33.9829 49.6252C34.6226 50.5173 35.3916 51.2792 36.2639 51.9369C37.091 52.5555 38.0344 52.8095 39.0877 52.9332L39.0941 52.9397Z" fill="white"/>
<path d="M30.9846 31.23C30.9588 30.5267 30.9717 29.8104 30.8877 29.1137C30.7778 28.2086 30.2867 27.5118 29.5372 27.0104C29.3886 26.9127 29.2012 26.8411 29.0267 26.8151C28.6778 26.763 28.4904 27.0039 28.5938 27.3425C28.6261 27.4532 28.6778 27.5574 28.7359 27.6551C29.6341 29.1462 29.4467 30.5723 28.5098 31.9593C28.3289 32.2263 28.1027 32.4672 27.8959 32.7147C27.7796 32.8514 27.6568 32.9816 27.5534 33.1249C27.379 33.3723 27.4307 33.5742 27.7085 33.6914C28.0639 33.8347 28.4322 33.9323 28.7812 34.0756C29.143 34.2319 29.5178 34.3882 29.8344 34.6161C30.067 34.7919 30.2544 35.0654 30.3901 35.3324C30.5581 35.671 30.416 36.0031 30.0477 36.1138C29.7827 36.1919 29.479 36.2375 29.2141 36.1854C28.0768 35.9705 26.9396 35.7817 25.8411 35.3975C24.6974 35.0003 24.1611 34.323 24.1675 33.1054C24.174 31.8356 24.3743 30.6049 24.8589 29.4132C25.3953 28.1044 26.0608 26.8737 27.0042 25.8383C27.6568 25.122 28.4258 24.5099 29.1883 23.9108C30.2609 23.0643 31.4886 22.5304 32.8133 22.2178C33.6662 22.0159 34.5321 21.9313 35.4109 21.9899C35.8502 22.0159 36.2703 22.1331 36.6515 22.3741C37.0263 22.615 37.1361 22.908 37.0263 23.3378C36.91 23.8001 36.7161 24.2234 36.4318 24.6076C35.7662 25.4997 35.217 26.4569 34.9133 27.5379C34.6548 28.4625 34.6548 29.4197 34.6936 30.377C34.7259 31.1779 34.7324 31.9919 34.6613 32.7928C34.6031 33.4114 34.4287 34.0235 33.9699 34.5054C32.9942 35.5212 32.0314 35.2803 31.2883 34.1212C31.0169 33.6979 30.9652 33.203 30.9523 32.7081C30.9394 32.2198 30.9523 31.7314 30.9523 31.243C30.9652 31.243 30.9781 31.243 30.9846 31.243V31.23Z" fill="white"/>
<path d="M47.8758 35.4759C48.3281 35.4369 48.6964 35.6322 49.0066 35.9773C49.3684 36.3811 49.614 36.8304 49.6915 37.3773C49.7884 38.035 49.9758 38.1001 50.4734 37.6704C51.0162 37.208 51.5266 36.7066 52.0694 36.2443C52.4183 35.9448 52.7996 35.6843 53.1744 35.4108C54.2664 34.6099 55.0676 34.9159 55.7655 35.8796C56.4763 36.8629 56.3147 38.048 55.5006 38.9401C54.4732 40.0536 53.3488 41.0499 52.1922 42.0267C51.8562 42.3132 51.546 42.6388 51.2423 42.9644C50.8094 43.4267 50.7706 43.9737 51.0097 44.5337C51.126 44.8007 51.3199 45.0286 51.4685 45.276C51.7592 45.7579 52.0759 46.2332 52.3343 46.7346C52.5605 47.1644 52.3925 47.3793 51.9143 47.3728C51.1906 47.3728 50.538 47.1254 49.9823 46.6891C49.0518 45.9532 48.0244 45.4063 46.9841 44.8463C45.9437 44.2863 44.9422 43.6611 43.9277 43.049C43.5335 42.8146 43.5206 42.6388 43.7662 42.2481C44.0569 41.7858 44.4188 41.4211 44.9163 41.1606C45.6917 40.7634 45.9954 40.1057 45.8533 39.2332C45.7951 38.8555 45.6982 38.4843 45.6594 38.1001C45.556 37.0908 45.9308 36.3029 46.7773 35.7494C47.1004 35.541 47.4558 35.4564 47.8629 35.4694L47.8758 35.4759Z" fill="white"/>
<path d="M42.4284 62.9284C40.9939 62.8568 39.6241 62.8047 38.2671 62.7135C37.7437 62.681 37.2203 62.5963 36.7099 62.4986C35.9861 62.3619 35.4498 61.8996 35.0234 61.3396C34.7067 60.9228 34.7455 60.4019 34.9911 59.9461C35.0686 59.7963 35.2754 59.6921 35.4434 59.6335C35.5791 59.5814 35.7471 59.6009 35.8957 59.627C36.7615 59.7507 37.6016 59.6465 38.4416 59.4251C39.2687 59.2102 40.0635 59.2363 40.8518 59.6205C41.2395 59.8093 41.666 59.9265 42.0924 60.0177C42.4995 60.1088 42.6998 59.9656 42.7709 59.5554C42.8808 58.9172 42.9518 58.266 43.0229 57.6214C43.0681 57.2111 43.0552 56.7879 43.1263 56.3842C43.262 55.6093 43.7014 55.3293 44.4574 55.5507C44.787 55.6483 45.0971 55.8176 45.4137 55.9609C46.0534 56.2669 46.2473 56.1888 46.3894 55.4855C46.5639 54.6065 47.0873 54.0009 47.7787 53.4995C48.1406 53.239 48.3538 53.3041 48.5864 53.6883C49.5492 55.2837 48.8772 57.5563 47.7141 58.4679C47.2941 58.8 46.8611 59.1126 46.4476 59.4512C46.0987 59.7377 46.1245 59.894 46.5122 60.1284C46.6673 60.2195 46.8224 60.3042 46.971 60.4019C47.2876 60.6168 47.3329 60.8121 47.139 61.1442C46.5768 62.0754 45.7756 62.6745 44.6965 62.7982C43.9275 62.8893 43.1521 62.8828 42.4414 62.9219L42.4284 62.9284Z" fill="white"/>
<path d="M45.7043 29.3879C47.1711 29.5051 48.6379 30.0065 49.9238 30.9833C50.1241 31.1395 50.305 31.3414 50.4536 31.5498C50.7444 31.9535 50.7056 32.3312 50.3826 32.7023C49.9755 33.1712 49.4133 33.3665 48.8447 33.5293C48.0693 33.7572 47.2939 33.9786 46.5185 34.2065C45.9046 34.3889 45.3618 34.7145 44.8643 35.0987C44.1212 35.6717 43.8304 36.4922 43.7076 37.3843C43.7012 37.4429 43.6818 37.495 43.6883 37.5536C43.727 38.3219 43.2747 38.8038 42.7513 39.2531C42.5381 39.4354 42.3701 39.4354 42.1827 39.2271C41.9371 38.9601 41.7045 38.6736 41.4848 38.3871C41.2845 38.1266 41.291 37.8336 41.3879 37.5275C41.7174 36.5117 42.0599 35.5089 42.3636 34.4865C42.5187 33.9721 42.5898 33.4382 42.6996 32.9172C42.8224 32.3377 42.9193 31.7451 43.0938 31.1851C43.4556 30.013 44.3732 29.3749 45.7108 29.3879H45.7043Z" fill="white"/>
<path d="M28.9041 39.8187C28.8136 40.7954 28.6521 41.6355 28.232 42.4103C28.1674 42.5341 28.0899 42.6513 28.0059 42.7555C27.3145 43.5629 26.6166 44.3639 25.9123 45.1583C25.7766 45.3146 25.6215 45.4643 25.4535 45.5881C25.0335 45.8941 24.5424 45.7769 24.355 45.295C23.9932 44.3899 24.0707 43.5238 24.6975 42.749C25.0464 42.3127 25.4277 41.8959 25.796 41.4792C26.0545 41.1927 26.0674 41.0364 25.7572 40.7954C25.0464 40.2289 24.6006 39.4931 24.3163 38.6401C24.1289 38.067 24.1935 37.748 24.6975 37.4159C25.1692 37.1033 25.6732 36.8428 26.1772 36.5954C26.5003 36.4326 26.8363 36.4717 27.1594 36.6475C27.9413 37.0838 28.4711 37.7219 28.6779 38.6075C28.7813 39.0438 28.8394 39.4866 28.9041 39.8252V39.8187Z" fill="white"/>
<path d="M28.8073 18.415C29.531 18.4346 30.0286 18.8318 30.468 19.3332C30.636 19.5285 30.5972 19.7174 30.4034 19.8867C30.3646 19.9257 30.3194 19.9583 30.2677 19.9909C29.2661 20.642 28.2646 21.2997 27.263 21.9509C27.2307 21.9704 27.1919 21.99 27.1596 22.016C26.5134 22.3937 26.003 22.1462 25.8996 21.3909C25.8414 20.9806 25.9125 20.5965 26.1516 20.2513C26.6556 19.5155 27.3276 18.975 28.1095 18.5843C28.3162 18.4802 28.5747 18.4671 28.8073 18.415Z" fill="white"/>
</g>
</g>
<defs>
<linearGradient id="paint0_linear_1651_373" x1="3.7337" y1="41.5745" x2="83.631" y2="41.5745" gradientUnits="userSpaceOnUse">
<stop stop-color="#1F295C"/>
<stop offset="0.17" stop-color="#1F295C"/>
<stop offset="0.48" stop-color="#0378BC"/>
<stop offset="0.92" stop-color="#1F3162"/>
<stop offset="1" stop-color="#1F3162"/>
</linearGradient>
<clipPath id="clip0_1651_373">
<rect width="87" height="86" fill="white"/>
</clipPath>
<clipPath id="clip1_1651_373">
<rect width="47" height="60" fill="white" transform="translate(19 13)"/>
</clipPath>
</defs>
</svg>
