<svg width="38" height="38" viewBox="0 0 38 38" fill="none" xmlns="http://www.w3.org/2000/svg">
<mask id="mask0_637_39989" style="mask-type:alpha" maskUnits="userSpaceOnUse" x="0" y="0" width="38" height="38">
<rect width="38" height="38" fill="#D9D9D9"/>
</mask>
<g mask="url(#mask0_637_39989)">
<path d="M9.5367 27.3792C10.8825 26.3804 12.3486 25.5918 13.935 25.0133C15.5214 24.4348 17.2097 24.1455 19.0001 24.1455C20.7905 24.1455 22.4789 24.4348 24.0652 25.0133C25.6516 25.5918 27.1177 26.3804 28.4636 27.3792C29.4481 26.2972 30.2281 25.0448 30.8036 23.6218C31.379 22.1988 31.6668 20.6581 31.6668 18.9996C31.6668 15.4899 30.4331 12.5014 27.9658 10.034C25.4984 7.56665 22.5098 6.33297 19.0001 6.33297C15.4904 6.33297 12.5019 7.56665 10.0345 10.034C7.56714 12.5014 6.33346 15.4899 6.33346 18.9996C6.33346 20.6581 6.6212 22.1988 7.19669 23.6218C7.77218 25.0448 8.55218 26.2972 9.5367 27.3792ZM19.0006 20.1871C17.555 20.1871 16.3359 19.6909 15.3433 18.6986C14.3506 17.7063 13.8543 16.4874 13.8543 15.0418C13.8543 13.5962 14.3505 12.3771 15.3428 11.3844C16.3351 10.3918 17.5541 9.89551 18.9997 9.89551C20.4453 9.89551 21.6644 10.3917 22.657 11.384C23.6496 12.3763 24.1459 13.5952 24.1459 15.0408C24.1459 16.4864 23.6498 17.7056 22.6575 18.6982C21.6651 19.6908 20.4462 20.1871 19.0006 20.1871ZM19.0001 34.0413C16.9113 34.0413 14.952 33.6485 13.122 32.8629C11.2921 32.0773 9.70011 31.0075 8.34615 29.6536C6.99222 28.2997 5.92246 26.7077 5.13689 24.8777C4.35129 23.0478 3.9585 21.0884 3.9585 18.9996C3.9585 16.9109 4.35129 14.9515 5.13689 13.1216C5.92246 11.2916 6.99222 9.69962 8.34615 8.34566C9.70011 6.99173 11.2921 5.92198 13.122 5.1364C14.952 4.35081 16.9113 3.95801 19.0001 3.95801C21.0889 3.95801 23.0483 4.35081 24.8782 5.1364C26.7082 5.92198 28.3001 6.99173 29.6541 8.34566C31.008 9.69962 32.0778 11.2916 32.8634 13.1216C33.649 14.9515 34.0418 16.9109 34.0418 18.9996C34.0418 21.0884 33.649 23.0478 32.8634 24.8777C32.0778 26.7077 31.008 28.2997 29.6541 29.6536C28.3001 31.0075 26.7082 32.0773 24.8782 32.8629C23.0483 33.6485 21.0889 34.0413 19.0001 34.0413ZM19.0001 31.6663C20.4292 31.6663 21.807 31.4364 23.1335 30.9766C24.4601 30.5169 25.638 29.8739 26.6671 29.0477C25.638 28.252 24.4753 27.6318 23.1792 27.1873C21.8831 26.7427 20.4901 26.5204 19.0001 26.5204C17.5102 26.5204 16.1146 26.7402 14.8134 27.1797C13.5122 27.6191 12.3521 28.2418 11.3331 29.0477C12.3623 29.8739 13.5401 30.5169 14.8667 30.9766C16.1933 31.4364 17.5711 31.6663 19.0001 31.6663ZM19.0001 17.8122C19.7877 17.8122 20.4464 17.5473 20.9763 17.0175C21.5061 16.4876 21.771 15.8289 21.771 15.0413C21.771 14.2537 21.5061 13.595 20.9763 13.0651C20.4464 12.5353 19.7877 12.2704 19.0001 12.2704C18.2125 12.2704 17.5538 12.5353 17.024 13.0651C16.4942 13.595 16.2293 14.2537 16.2293 15.0413C16.2293 15.8289 16.4942 16.4876 17.024 17.0175C17.5538 17.5473 18.2125 17.8122 19.0001 17.8122Z" fill="#07338D"/>
</g>
</svg>
