<svg width="32" height="39" viewBox="0 0 32 39" fill="none" xmlns="http://www.w3.org/2000/svg">
<path fill-rule="evenodd" clip-rule="evenodd" d="M18.802 28.3534C21.8366 26.997 24.0007 23.4993 24.0007 19.4046C24.0007 16.7681 23.1033 14.3801 21.6553 12.6511C21.1353 12.0302 21.1353 11.0209 21.6553 10.4C22.1767 9.77911 23.0206 9.77911 23.542 10.4C25.4726 12.7053 26.6673 15.8893 26.6673 19.4046C26.6673 24.9496 23.6927 29.6716 19.546 31.4181L20.7607 32.4243C21.3647 32.9258 21.5153 33.9176 21.0953 34.6404C20.6767 35.3616 19.8447 35.5415 19.2407 35.04L15.2407 31.727C14.638 31.2286 14.486 30.2416 14.9007 29.5188L17.5673 24.8732C17.9833 24.1472 18.814 23.9626 19.4206 24.4593C20.0273 24.956 20.182 25.9479 19.766 26.6722L18.802 28.3534ZM12.486 7.37672L11.2607 6.40079C10.6487 5.91363 10.482 4.92338 10.89 4.19263C11.2993 3.46188 12.1273 3.26447 12.7393 3.75163L16.7393 6.93571C17.3527 7.42288 17.518 8.41155 17.11 9.14388L14.4433 13.92C14.034 14.6507 13.206 14.8481 12.594 14.361C11.982 13.8738 11.8153 12.8836 12.2233 12.1528L13.1633 10.4716C10.146 11.8392 8.00065 15.3242 8.00065 19.4046C8.00065 22.041 8.89665 24.4275 10.3447 26.158C10.8647 26.7789 10.8647 27.7867 10.3447 28.4091C9.82465 29.03 8.97932 29.03 8.45932 28.4091C6.52865 26.1039 5.33398 22.9198 5.33398 19.4046C5.33398 13.8452 8.32332 9.11204 12.486 7.37672Z" fill="white"/>
</svg>
