<svg width="24" height="29" viewBox="0 0 24 29" fill="none" xmlns="http://www.w3.org/2000/svg">
<g clip-path="url(#clip0_830_816)">
<path d="M10.9568 12.3531C13.264 12.3531 15.1343 10.1198 15.1343 7.36501C15.1343 4.61018 13.264 2.37695 10.9568 2.37695C8.64963 2.37695 6.7793 4.61018 6.7793 7.36501C6.7793 10.1198 8.64963 12.3531 10.9568 12.3531Z" stroke="white" stroke-width="3"/>
<path d="M15.4947 16.0558C14.486 15.1827 12.3672 14.6006 10.9572 14.6006C9.84642 14.6006 8.7465 14.8619 7.72029 15.3696C6.69409 15.8773 5.76171 16.6214 4.97643 17.5595C4.19115 18.4976 3.56834 19.6112 3.14359 20.8367C2.71885 22.0623 2.50048 23.3757 2.50098 24.7021H13.7135" stroke="white" stroke-width="3"/>
<path d="M19 16.792L19 26.3442" stroke="white" stroke-width="3"/>
<path d="M15 21.5674H23" stroke="white" stroke-width="3"/>
</g>
<defs>
<clipPath id="clip0_830_816">
<rect width="24" height="28.6567" fill="white" transform="translate(0 0.0751953)"/>
</clipPath>
</defs>
</svg>
