<svg width="27" height="35" viewBox="0 0 27 35" fill="none" xmlns="http://www.w3.org/2000/svg">
<path fill-rule="evenodd" clip-rule="evenodd" d="M8.61611 0.813126C8.85054 0.53323 9.16848 0.375977 9.5 0.375977H19.5C21.5711 0.375977 23.25 2.38068 23.25 4.85359V9.3312C23.25 10.1555 22.6904 10.8237 22 10.8237C21.3096 10.8237 20.75 10.1555 20.75 9.3312V4.85359C20.75 4.02929 20.1904 3.36105 19.5 3.36105H10.75V10.8237C10.75 11.648 10.1904 12.3163 9.5 12.3163H3.25V28.7342C3.25 29.5585 3.80965 30.2267 4.5 30.2267H7C7.69035 30.2267 8.25 30.8949 8.25 31.7193C8.25 32.5436 7.69035 33.2118 7 33.2118H4.5C2.42894 33.2118 0.75 31.2072 0.75 28.7342V10.8237C0.75 10.4279 0.8817 10.0483 1.11611 9.76835L8.61611 0.813126ZM5.01776 9.3312H8.25V5.47181L5.01776 9.3312ZM18.25 16.7939C14.7983 16.7939 12 20.1351 12 24.2566C12 28.3781 14.7983 31.7193 18.25 31.7193C21.7017 31.7193 24.5 28.3781 24.5 24.2566C24.5 20.1351 21.7017 16.7939 18.25 16.7939ZM9.5 24.2566C9.5 18.4864 13.4175 13.8088 18.25 13.8088C23.0825 13.8088 27 18.4864 27 24.2566C27 30.0267 23.0825 34.7043 18.25 34.7043C13.4175 34.7043 9.5 30.0267 9.5 24.2566ZM22.375 22.167C22.7892 21.5076 22.6772 20.5721 22.125 20.0775C21.5728 19.5828 20.7893 19.7166 20.375 20.376L17.4401 25.0485L15.9555 23.4727C15.4395 22.9251 14.6494 22.9806 14.1908 23.5967C13.7321 24.2127 13.7786 25.1561 14.2945 25.7037L16.7945 28.3572C17.0559 28.6345 17.4024 28.7685 17.7503 28.7267C18.098 28.6849 18.4152 28.471 18.625 28.1372L22.375 22.167Z" fill="white"/>
</svg>
