<svg width="32" height="29" viewBox="0 0 32 29" fill="none" xmlns="http://www.w3.org/2000/svg">
<path d="M6.48385 1.03541C6.94759 1.58914 6.94759 2.48691 6.48385 3.04064C1.22804 9.31623 1.22804 19.491 6.48385 25.7666C6.94759 26.3203 6.94759 27.2181 6.48385 27.7718C6.0201 28.3255 5.26822 28.3255 4.80447 27.7718C-1.37883 20.3887 -1.37883 8.41846 4.80447 1.03541C5.26822 0.481685 6.0201 0.481685 6.48385 1.03541ZM27.1962 1.03541C33.3795 8.41846 33.3795 20.3887 27.1962 27.7718C26.7324 28.3255 25.9806 28.3255 25.5168 27.7718C25.0531 27.2181 25.0531 26.3203 25.5168 25.7666C30.7726 19.491 30.7726 9.31623 25.5168 3.04064C25.0531 2.48691 25.0531 1.58914 25.5168 1.03541C25.9806 0.481685 26.7324 0.481685 27.1962 1.03541ZM10.9622 6.38269C11.4259 6.93642 11.4259 7.83419 10.9622 8.38792C8.1797 11.7103 8.1797 17.0969 10.9622 20.4193C11.4259 20.973 11.4259 21.8708 10.9622 22.4245C10.4984 22.9782 9.74656 22.9782 9.28281 22.4245C5.57283 17.9947 5.57283 10.8125 9.28281 6.38269C9.74656 5.82896 10.4984 5.82896 10.9622 6.38269ZM22.7178 6.38269C26.4278 10.8125 26.4278 17.9947 22.7178 22.4245C22.2541 22.9782 21.5022 22.9782 21.0385 22.4245C20.5747 21.8708 20.5747 20.973 21.0385 20.4193C23.8209 17.0969 23.8209 11.7103 21.0385 8.38792C20.5747 7.83419 20.5747 6.93642 21.0385 6.38269C21.5022 5.82896 22.2541 5.82896 22.7178 6.38269ZM16.0003 11.5678C17.312 11.5678 18.3753 12.8374 18.3753 14.4036C18.3753 15.9698 17.312 17.2394 16.0003 17.2394C14.6886 17.2394 13.6253 15.9698 13.6253 14.4036C13.6253 12.8374 14.6886 11.5678 16.0003 11.5678Z" fill="white"/>
</svg>
