<svg width="32" height="34" viewBox="0 0 32 34" fill="none" xmlns="http://www.w3.org/2000/svg">
<path fill-rule="evenodd" clip-rule="evenodd" d="M17.3333 29.4743C17.3333 30.2504 17.9293 30.8778 18.6667 30.8778H22.6667C24.0813 30.8778 25.4373 30.2869 26.4373 29.2343C27.4373 28.1816 28 26.7529 28 25.2638C28 24.4581 28 23.8603 28 23.8603C28 23.0855 27.4027 22.4567 26.6667 22.4567H18.6667C17.9293 22.4567 17.3333 23.0855 17.3333 23.8603V29.4743ZM13.3333 30.8778C14.0693 30.8778 14.6667 30.2504 14.6667 29.4743V15.4392C14.6667 14.6645 14.0693 14.0357 13.3333 14.0357H5.33333C4.596 14.0357 4 14.6645 4 15.4392V25.2638C4 26.7529 4.56133 28.1816 5.56133 29.2343C6.56133 30.2869 7.91867 30.8778 9.33333 30.8778H13.3333ZM25.3333 25.2638H20V28.0708H22.6667C23.3733 28.0708 24.052 27.776 24.552 27.2497C25.052 26.7234 25.3333 26.009 25.3333 25.2638ZM12 28.0708V16.8427H6.66667V25.2638C6.66667 26.009 6.94666 26.7234 7.448 27.2497C7.948 27.776 8.62533 28.0708 9.33333 28.0708H12ZM18.6667 2.80762C17.9293 2.80762 17.3333 3.43639 17.3333 4.21113V18.2462C17.3333 19.0224 17.9293 19.6497 18.6667 19.6497H26.6667C27.4027 19.6497 28 19.0224 28 18.2462V8.42165C28 6.93393 27.4373 5.50516 26.4373 4.45253C25.4373 3.39989 24.0813 2.80762 22.6667 2.80762H18.6667ZM20 5.61463V16.8427H25.3333V8.42165C25.3333 7.67779 25.052 6.96341 24.552 6.43709C24.052 5.91077 23.3733 5.61463 22.6667 5.61463H20ZM14.6667 4.21113C14.6667 3.43639 14.0693 2.80762 13.3333 2.80762H9.33333C7.91867 2.80762 6.56133 3.39989 5.56133 4.45253C4.56133 5.50516 4 6.93393 4 8.42165V9.82516C4 10.6013 4.596 11.2287 5.33333 11.2287H13.3333C14.0693 11.2287 14.6667 10.6013 14.6667 9.82516V4.21113ZM12 5.61463H9.33333C8.62533 5.61463 7.948 5.91077 7.448 6.43709C6.94666 6.96341 6.66667 7.67779 6.66667 8.42165H12V5.61463Z" fill="white"/>
</svg>
