<svg width="28" height="33" viewBox="0 0 28 33" fill="none" xmlns="http://www.w3.org/2000/svg">
<path fill-rule="evenodd" clip-rule="evenodd" d="M1.99935 32.7422H25.9993C26.7353 32.7422 27.3327 32.0289 27.3327 31.1501C27.3327 30.2713 26.7353 29.5581 25.9993 29.5581H1.99935C1.26335 29.5581 0.666016 30.2713 0.666016 31.1501C0.666016 32.0289 1.26335 32.7422 1.99935 32.7422ZM7.33268 15.2297H6.48735C4.74468 15.2297 3.33268 13.5438 3.33268 11.463C3.33268 11.4614 3.33268 11.4614 3.33268 11.4598C3.33268 10.3135 3.79535 9.23888 4.57668 8.57341C6.73135 6.73619 13.2247 1.19749 13.2247 1.19749C13.6873 0.802661 14.3113 0.802661 14.774 1.19749C14.774 1.19749 21.2673 6.73619 23.422 8.57341C24.2033 9.23888 24.666 10.3135 24.666 11.4598V11.463C24.666 13.5438 23.254 15.2297 21.5114 15.2297H20.666V23.1899H23.3327C24.0687 23.1899 24.666 23.9032 24.666 24.782C24.666 25.6608 24.0687 26.374 23.3327 26.374H4.66602C3.93002 26.374 3.33268 25.6608 3.33268 24.782C3.33268 23.9032 3.93002 23.1899 4.66602 23.1899H7.33268V15.2297ZM9.99935 15.2297V23.1899H12.666V15.2297H9.99935ZM15.3327 15.2297V23.1899H17.9993V15.2297H15.3327ZM13.9993 4.45002L6.12602 11.1637C6.04735 11.2321 5.99935 11.342 5.99935 11.4598V11.463C5.99935 11.7846 6.21802 12.0456 6.48735 12.0456H21.5114C21.7807 12.0456 21.9993 11.7846 21.9993 11.463V11.4598C21.9993 11.342 21.9514 11.2321 21.8727 11.1637L13.9993 4.45002Z" fill="white"/>
</svg>
