<svg width="28" height="34" viewBox="0 0 28 34" fill="none" xmlns="http://www.w3.org/2000/svg">
<path d="M2.33301 16.7917C2.33301 10.2248 2.33301 6.94143 4.04156 4.90138C5.75009 2.86133 8.49995 2.86133 13.9997 2.86133C19.4993 2.86133 22.2493 2.86133 23.9578 4.90138C25.6663 6.94143 25.6663 10.2248 25.6663 16.7917C25.6663 23.3584 25.6663 26.642 23.9578 28.6819C22.2493 30.722 19.4993 30.722 13.9997 30.722C8.49995 30.722 5.75009 30.722 4.04156 28.6819C2.33301 26.642 2.33301 23.3584 2.33301 16.7917Z" stroke="white" stroke-width="3"/>
<path d="M17.5 16.7914H14M14 16.7914H10.5M14 16.7914V12.6123M14 16.7914V20.9705" stroke="white" stroke-width="3" stroke-linecap="round"/>
</svg>
