<svg width="32" height="39" viewBox="0 0 32 39" fill="none" xmlns="http://www.w3.org/2000/svg">
<path d="M12.6674 13.2703H17.334V10.0862H14.6674V8.49414H12.0007V10.1673C10.4807 10.5367 9.33398 12.1447 9.33398 14.0662C9.33398 16.26 10.83 18.0463 12.6673 18.0463H14.0007C14.3687 18.0463 14.6674 18.4029 14.6674 18.8423C14.6674 19.2817 14.3687 19.6384 14.0007 19.6384H9.33398V22.8225H12.0007V24.4145H14.6674V22.7413C16.1873 22.372 17.334 20.7624 17.334 18.8424C17.334 16.6486 15.8393 14.8623 14.0007 14.8623H12.6674C12.3007 14.8623 12.0007 14.5057 12.0007 14.0663C12.0007 13.6269 12.3007 13.2703 12.6674 13.2703Z" fill="white"/>
<path d="M12.0813 29.0943C6.788 28.3508 2.66663 22.9698 2.66663 16.4535C2.66663 9.43104 7.45194 3.71716 13.3333 3.71716C19.2147 3.71716 24 9.43104 24 16.4536C24 16.9933 23.9627 17.5234 23.908 18.0456H26.6C26.6427 17.5218 26.6667 16.9916 26.6667 16.4536C26.6667 7.67507 20.6867 0.533203 13.3334 0.533203C5.98131 0.533128 0 7.67507 0 16.4536C0 23.7801 4.16931 29.9477 9.81869 31.7945L12.0813 29.0943Z" fill="white"/>
<path d="M24.0005 21.2295V24.4136H27.4485L22.6672 30.1226L19.6099 26.4721C19.0886 25.8496 18.2459 25.8496 17.7246 26.4721L9.72461 36.0243L11.6099 38.2755L18.6672 29.8488L21.7245 33.4978C22.2459 34.1202 23.0885 34.1202 23.6099 33.4978L29.3339 26.6647V30.7817H32.0005V21.2295H24.0005Z" fill="white"/>
</svg>
