<svg width="24" height="24" viewBox="0 0 24 24" fill="none" xmlns="http://www.w3.org/2000/svg">
<path d="M5.75 15.75V8.25C5.75 7.5625 5.99479 6.97396 6.48438 6.48438C6.97396 5.99479 7.5625 5.75 8.25 5.75H18.4375L15.2188 2.53125L17 0.75L23.25 7L17 13.25L15.2188 11.5L18.4375 8.25H8.25V15.75H5.75ZM3.25 23.25C2.5625 23.25 1.97396 23.0052 1.48438 22.5156C0.994792 22.026 0.75 21.4375 0.75 20.75V2H3.25V20.75H18.25V15.75H20.75V20.75C20.75 21.4375 20.5052 22.026 20.0156 22.5156C19.526 23.0052 18.9375 23.25 18.25 23.25H3.25Z" fill="white"/>
</svg>
