<svg width="31" height="36" viewBox="0 0 31 36" fill="none" xmlns="http://www.w3.org/2000/svg">
<path d="M8.85742 14.1426H18.2256V16.2082H8.85742V14.1426ZM8.85742 21.077H19.9289V23.1426H8.85742V21.077Z" fill="white"/>
<path d="M27.125 4.5H3.875C3.36114 4.5 2.86833 4.73705 2.50498 5.15901C2.14163 5.58097 1.9375 6.15326 1.9375 6.75V29.25C1.9375 29.8467 2.14163 30.419 2.50498 30.841C2.86833 31.263 3.36114 31.5 3.875 31.5H27.125C27.6389 31.5 28.1317 31.263 28.495 30.841C28.8584 30.419 29.0625 29.8467 29.0625 29.25V6.75C29.0625 6.15326 28.8584 5.58097 28.495 5.15901C28.1317 4.73705 27.6389 4.5 27.125 4.5ZM3.875 29.25V7.41177H27.125V29.25H3.875Z" fill="white"/>
</svg>
