<svg width="26" height="27" viewBox="0 0 26 27" fill="none" xmlns="http://www.w3.org/2000/svg">
<path fill-rule="evenodd" clip-rule="evenodd" d="M8.6125 2.50155C9.5355 0.997646 11.1553 0 13 0C14.8447 0 16.4645 0.997646 17.3875 2.50155C19.0632 2.11545 20.8884 2.6001 22.1923 3.95415C23.4962 5.30955 23.9629 7.20359 23.5911 8.94509C25.0393 9.90359 26 11.5857 26 13.5C26 15.4157 25.0393 17.0977 23.5911 18.0562C23.9629 19.7978 23.4962 21.6918 22.1923 23.0458C20.8884 24.4012 19.0632 24.8845 17.3875 24.4998C16.4645 26.0037 14.8447 27 13 27C11.1553 27 9.5355 26.0037 8.6125 24.4998C6.9355 24.8845 5.1116 24.4012 3.8077 23.0458C2.5038 21.6918 2.03711 19.7978 2.40761 18.0562C0.960706 17.0977 0 15.4157 0 13.5C0 11.5857 0.960706 9.90359 2.40761 8.94509C2.03711 7.20359 2.5038 5.30955 3.8077 3.95415C5.1116 2.6001 6.9355 2.11545 8.6125 2.50155ZM8.68141 5.37569C9.02201 5.55929 9.4237 5.57684 9.7786 5.42429C10.1335 5.27174 10.4052 4.96394 10.5209 4.58459C10.8537 3.49244 11.8378 2.7 13 2.7C14.1622 2.7 15.1463 3.49244 15.4791 4.58459C15.5948 4.96394 15.8665 5.27174 16.2214 5.42429C16.5763 5.57684 16.9767 5.55929 17.3173 5.37569C18.2975 4.84784 19.5325 5.00984 20.3541 5.86439C21.1757 6.71759 21.333 8.0001 20.8247 9.01665C20.6479 9.37035 20.6297 9.7875 20.7766 10.1547C20.9235 10.5233 21.2199 10.8054 21.5852 10.9256C22.6382 11.2712 23.4 12.2931 23.4 13.5C23.4 14.7069 22.6382 15.7302 21.5852 16.0758C21.2199 16.1959 20.9235 16.4781 20.7766 16.8453C20.6297 17.2138 20.6479 17.631 20.8247 17.9847C21.333 19.0012 21.1757 20.2837 20.3541 21.1369C19.5325 21.9901 18.2975 22.1535 17.3173 21.6256C16.9767 21.442 16.5763 21.4245 16.2214 21.5771C15.8665 21.7296 15.5948 22.0374 15.4791 22.4167C15.1463 23.5089 14.1622 24.3 13 24.3C11.8378 24.3 10.8537 23.5089 10.5209 22.4167C10.4052 22.0374 10.1335 21.7296 9.7786 21.5771C9.4237 21.4245 9.02201 21.442 8.68141 21.6256C7.70251 22.1535 6.4675 21.9901 5.6459 21.1369C4.8243 20.2837 4.667 19.0012 5.1753 17.9847C5.3521 17.631 5.36901 17.2138 5.22341 16.8453C5.07651 16.4781 4.78011 16.1959 4.41351 16.0758C3.36181 15.7302 2.6 14.7069 2.6 13.5C2.6 12.2931 3.36181 11.2712 4.41351 10.9256C4.78011 10.8054 5.07651 10.5233 5.22341 10.1547C5.36901 9.7875 5.3521 9.37035 5.1753 9.01665C4.667 8.0001 4.8243 6.71759 5.6459 5.86439C6.4675 5.00984 7.70251 4.84784 8.68141 5.37569ZM13 8.1C10.1296 8.1 7.8 10.5205 7.8 13.5C7.8 16.4808 10.1296 18.9 13 18.9C15.8704 18.9 18.2 16.4808 18.2 13.5C18.2 10.5205 15.8704 8.1 13 8.1ZM13 10.8C14.4352 10.8 15.6 12.011 15.6 13.5C15.6 14.9904 14.4352 16.2 13 16.2C11.5648 16.2 10.4 14.9904 10.4 13.5C10.4 12.011 11.5648 10.8 13 10.8Z" fill="white"/>
</svg>
